#N canvas 623 249 725 437 12;
#X obj 7 156 sql;
#X obj 25 129 bng 15 250 50 0 empty empty empty 17 7 0 10 #fcfcfc #000000
#000000;
#X obj 7 78 fudiformat -u;
#X obj 7 102 list tosymbol;
#X msg 8 7 select sqlite_version();
#X msg 196 7 create table person ( id integer primary key\\\\ \, name
text );
#X connect 1 0 0 0;
#X connect 2 0 3 0;
#X connect 3 0 0 0;
#X connect 4 0 2 0;
#X connect 5 0 2 0;
