#N canvas 439 145 621 335 12;
#X obj 166 286 sql3;
#X obj 184 259 bng 15 250 50 0 empty empty empty 17 7 0 10 #fcfcfc
#000000 #000000;
#X msg 72 42 open :memory:;
#X msg 93 69 open my.db;
#X msg 113 95 close;
#N canvas 693 331 387 452 sqltodb 0;
#X obj 26 18 inlet;
#X obj 23 306 outlet;
#X obj 210 19 text define \$0-buffer;
#X obj 55 103 text set \$0-buffer;
#X obj 23 76 t b l;
#X msg 23 133 0;
#X obj 23 183 list trim;
#X obj 23 157 text get \$0-buffer;
#X obj 23 234 fudiformat -u;
#X obj 23 258 list tosymbol;
#X obj 25 47 list prepend;
#X connect 0 0 10 0;
#X connect 4 0 5 0;
#X connect 4 1 3 0;
#X connect 5 0 7 0;
#X connect 6 0 8 0;
#X connect 7 0 6 0;
#X connect 8 0 9 0;
#X connect 9 0 1 0;
#X connect 10 0 4 0;
#X restore 166 217 pd sqltodb;
#X msg 163 123 select sqlite_version();
#X msg 175 158 create table person ( id integer primary key\\\, name
text );
#X msg 198 188 insert into person (id\\\, name) values ( 1\\\, 'hello'
);
#X connect 1 0 0 0;
#X connect 2 0 0 0;
#X connect 3 0 0 0;
#X connect 4 0 0 0;
#X connect 5 0 0 0;
#X connect 6 0 5 0;
#X connect 7 0 5 0;
#X connect 8 0 5 0;
