#N canvas 397 22 521 501 10;
#X obj 320 263 inlet init;
#X obj 132 263 inlet bang;
#X obj 238 333 list prepend;
#X obj 257 313 t a;
#X obj 132 343 list;
#X obj 132 363 outlet;
#X text 59 74 \$1 - the symbol prepend to the list;
#X obj 238 263 inlet data;
#X text 38 104 1- send bang to second inlet to clear the list \; 2-
send an atom to the first inlet \, and when it is done \, it will send
a band out the second outlet to indicate that the next element should
be sent \; 3- when you have finished your list of atoms \, send a bang
to the third inlet to output the completed list to the first outlet
\;;
#X text 44 22 produces a list of atoms prepended with a symbol of the
developers choice.;
#X connect 0 0 2 1;
#X connect 0 0 4 1;
#X connect 1 0 4 0;
#X connect 2 0 3 0;
#X connect 2 0 4 1;
#X connect 3 0 2 1;
#X connect 4 0 5 0;
#X connect 7 0 2 0;
