#N canvas 267 38 681 615 10;
#X obj 149 358 sqlite3db-nogui \$0-sssad;
#N canvas 332 22 534 602 \$0-help 0;
#X text 40 7 Note:;
#X text 40 102 First thing:;
#X text 56 249 You will notice that as long as there is a filename
displayed at the bottom of the window \, you can't use the Open or
Create functions. Once you close the file \, you may then open or create
another file.;
#X text 41 315 Second thing:;
#X text 58 333 As long as you have this file opened \, any time you
hit the Add button \, a new patch set will be added to the database.
It will be named <NULL> \, and you can rename it by typing in a new
patch name in the symbol box. Doing so at any time will rename the
currently selected patch. If you use the Update button \, the currently
selected patch is overwritten in the database. Selecting Delete will
remove the current patch from the database \, and select the one just
below that one from the database.;
#X text 57 120 The first time you use this interface \, you will have
to Create a database with the required tables to operate. Any other
time \, you can open up those databases \, and recall the data (as
long as you have the same patches opened \, and the same data configuration
is still recognized). The tables are added automatically to a database
\, currently it doesn't do any error checking if the tables exist \,
but it shouldn't overwrite them. This can also be trouble if you try
to overwrite an existing database \, it will just open the existing
database file.;
#X text 61 21 The design goal is to be able to plug this into a group
of open patches that use SSSAD protocols \, you should be able to test
it all out from the help patch. I don't know how it will react with
other methods to store SSSAD data at the same time as using this \,
so if anything seems to be weird \, try to disable those other "Storing"
methods \, and try again.;
#X text 62 553 This will provide a means to "monitor" the traffic over
the SSSAD busses. It will display (on the console) any messages sent
to SSSAD and SSSAD_ADMIN.;
#X text 42 538 M: (in the upper right corner);
#X text 38 455 Enabled:;
#X text 61 473 If this is ON \, you should be able to use the patch
normally. With this OFF \, all SSSAD store and retrieve functions are
disabled \, and you won't be able to delete any patches.;
#X restore 41 199 pd \$0-help;
#X obj 21 21 cnv 15 130 162 empty \$0-cnv-r SSSAD 4 10 0 14 -261234
-66577 0;
#X symbolatom 25 105 17 0 0 2 Rename_patch #0-patch-rename-r #0-patch-rename
;
#X obj 21 175 cnv 18 130 18 empty \$0-filename-cnv-r - 4 10 0 12 -261234
-66577 0;
#X obj 25 122 bng 13 250 50 0 \$0-open \$0-open-r Open 15 6 0 12 -262144
-1 -1;
#X obj 133 122 bng 13 250 50 0 \$0-add \$0-add-r Add -23 6 0 12 -262144
-1 -1;
#X obj 133 150 bng 13 250 50 0 \$0-delete \$0-delete-r Delete -43 6
0 12 -262144 -1 -1;
#X obj 25 136 bng 13 250 50 0 \$0-create \$0-create-r Create 15 6 0
12 -262144 -1 -1;
#X obj 133 136 bng 13 250 50 0 \$0-update \$0-update-r Update -43 6
0 12 -262144 -1 -1;
#X obj 25 150 bng 13 250 50 0 \$0-close \$0-close-r Close 15 6 0 12
-262144 -1 -1;
#X obj 133 164 tgl 13 0 \$0-sssad-enabled \$0-sssad-enabled-r Enabled
-50 6 0 12 -262144 -1 -1 1 1;
#X obj 25 164 tgl 13 0 \$0-sssad-help \$0-sssad-help-r H 15 6 0 12
-262144 -1 -1 1 1;
#X symbolatom 25 75 17 0 0 2 Select_by_name #0-patch-name-rs #0-patch-name-s
;
#X floatatom 25 44 8 0 0 1 Index #0-patch-name-r #0-patch-name;
#X obj 133 45 tgl 13 0 \$0-sssad-monitor \$0-sssad-monitor-r M -9 7
0 12 -262144 -1 -1 0 1;
#X msg 198 63 \; \$1-sql drop table sssad_patch \; \$1 bang \; \$1-sql
drop table sssad_data \; \$1 bang \; \$1-sql drop table sssad_list
\; \$1 bang \;;
#X obj 198 43 symbol \$0-sssad;
#X obj 178 15 bng 15 250 50 0 empty empty empty 17 7 0 10 -262144 -1
-1;
#X obj 198 13 r \$0-removedb;
#X obj 502 175 s \$0-sssad;
#X msg 502 155 report;
#X obj 427 41 r SSSAD;
#X obj 470 65 r \$0-sssad-monitor;
#X obj 434 99 spigot;
#X obj 524 99 spigot;
#X obj 429 125 print SSSAD:;
#X obj 6 232 r \$0-sssad-help;
#X obj 6 272 \$0;
#X obj 6 252 t b f;
#X obj 6 292 pack f f;
#X msg 6 312 \; pd-\$1-help vis \$2 \;;
#X obj 16 398 symbol \$0-sssad;
#X obj 16 378 r \$0-initdb;
#X msg 16 418 \; \$1-sql create table sssad_patch(name varchar) \;
\$1 bang \; \; \$1-sql create table sssad_data(sssad_patch_id integer
\, sssad_key varchar \, data) \; \$1 bang \; \; \$1-sql create table
sssad_list(sssad_data_id integer \, data) \; \$1 bang \; \; \$1-prepare
use \$1 \;;
#X obj 31 355 bng 15 250 50 0 empty empty empty 17 7 0 10 -262144 -1
-1;
#X obj 422 420 r \$0-sssad-data;
#X obj 422 440 print \$0-sssad-data;
#X obj 422 376 r \$0-sssad-completed;
#X obj 422 396 print \$0-sssad-completed;
#X obj 432 329 r \$0-errors;
#X obj 432 349 print \$0-\$1-errors;
#X obj 429 481 sqlite3db-master \$0-sssad;
#X obj 149 258 v \$0-current-patch-id;
#X obj 149 236 v \$0-file-not-open;
#N canvas 40 58 891 565 \$0-guihandling 0;
#X obj 26 13 r \$0-sssad-update-gui;
#X obj 590 32 loadbang;
#X obj 613 152 symbol \$1;
#X obj 613 172 list prepend label;
#X obj 613 192 list trim;
#X obj 613 212 s \$0-cnv-r;
#N canvas 17 33 891 679 handle-patch-name 0;
#X obj 26 486 r \$0-patch-rename;
#X obj 43 596 sqlite3query update sssad_patch set name = ?1 where rowid
= ?2;
#X obj 77 536 v \$0-current-patch-id;
#X obj 60 566 pack s f;
#X obj 83 203 r \$0-sssad-prepare;
#X obj 164 24 r \$0-patch-name;
#X obj 256 134 sqlite3query select name from sssad_patch where rowid
= ?1;
#X obj 295 114 v \$0-current-patch-id;
#X msg 256 174 set \$1;
#X obj 256 194 s \$0-patch-rename-r;
#X obj 256 154 symbol;
#X obj 511 640 s \$0-errors;
#X obj 26 636 s \$0-sssad-update-gui;
#X obj 26 516 t b b s b;
#X obj 239 84 t b b f f;
#X obj 474 162 list prepend handle-patch-name-1;
#X obj 541 562 list prepend handle-patch-name-3;
#X obj 326 174 s \$0-patch-name-rs;
#X obj 293 17 r \$0-patch-name-s;
#X obj 343 57 sqlite3query select rowid from sssad_patch where name
= ?1;
#X obj 343 77 route float;
#X obj 293 37 t b s s;
#X obj 108 136 s \$0-sssad-load;
#X connect 0 0 13 0;
#X connect 1 1 16 0;
#X connect 2 0 3 1;
#X connect 3 0 1 0;
#X connect 4 0 1 0;
#X connect 4 0 6 0;
#X connect 5 0 14 0;
#X connect 6 0 10 0;
#X connect 6 1 15 0;
#X connect 8 0 9 0;
#X connect 8 0 17 0;
#X connect 10 0 8 0;
#X connect 13 0 12 0;
#X connect 13 1 1 0;
#X connect 13 2 3 0;
#X connect 13 3 2 0;
#X connect 14 0 22 0;
#X connect 14 1 6 0;
#X connect 14 2 6 0;
#X connect 14 3 7 0;
#X connect 15 0 11 0;
#X connect 16 0 11 0;
#X connect 18 0 21 0;
#X connect 19 0 20 0;
#X connect 20 0 7 0;
#X connect 21 0 22 0;
#X connect 21 1 8 0;
#X connect 21 2 19 0;
#X restore 292 13 pd handle-patch-name;
#X obj 46 123 r \$0-sssad-prepare;
#X obj 590 471 list prepend label;
#X obj 590 491 list trim;
#X obj 590 511 s \$0-filename-cnv-r;
#X obj 450 182 r \$0-sssad-data;
#X obj 450 202 route open close;
#X obj 470 252 symbol2list /;
#X obj 470 352 list split;
#X obj 470 282 t a a;
#X obj 497 302 list length;
#X obj 497 322 - 1;
#X obj 590 422 symbol -;
#X obj 590 451 symbol;
#X obj 470 232 symbol;
#X obj 613 393 s \$0-patch-name-r;
#X msg 636 262 set -;
#X obj 646 282 s \$0-patch-rename-r;
#X obj 636 122 s \$0-sssad-enabled-r;
#X obj 636 102 1;
#X obj 59 52 v \$0-current-patch-id;
#X obj 26 153 sqlite3query select name from sssad_patch where rowid
= ?1;
#N canvas 0 22 525 533 do-delete 0;
#X obj 28 30 r \$0-delete;
#X obj 103 70 v \$0-current-patch-id;
#X obj 88 100 until;
#X obj 43 370 v \$0-current-patch-id;
#X obj 43 410 max 0;
#X obj 43 430 v \$0-current-patch-id;
#X obj 28 460 s \$0-sssad-update-gui;
#X obj 269 453 s \$0-errors;
#X obj 304 200 r \$0-sssad-prepare;
#X obj 73 250 sqlite3query delete from sssad_data where sssad_patch_id
= ?1;
#X obj 43 390 - 1;
#X obj 88 130 sqlite3query select rowid \, data from sssad_data where
sssad_patch_id = ?1;
#N canvas 534 334 450 300 \$0-delete-if-list 0;
#X obj 28 217 t b f;
#X obj 28 247 sqlite3query delete from sssad_list where sssad_data_id
= ?1;
#X obj 62 64 route float;
#X obj 125 84 list trim;
#X obj 125 104 route NULL;
#X obj 28 44 list split 1;
#X obj 28 197 spigot;
#X obj 91 167 0;
#X obj 61 167 1;
#X obj 91 147 t b;
#X obj 61 147 t b;
#X obj 28 24 inlet;
#X obj 206 267 s \$0-errors;
#X obj 78 217 r \$0-sssad-prepare;
#X connect 0 0 1 0;
#X connect 0 1 1 0;
#X connect 1 1 12 0;
#X connect 2 0 9 0;
#X connect 2 1 3 0;
#X connect 3 0 4 0;
#X connect 4 0 10 0;
#X connect 4 1 9 0;
#X connect 5 0 6 0;
#X connect 5 1 2 0;
#X connect 6 0 0 0;
#X connect 7 0 6 1;
#X connect 8 0 6 1;
#X connect 9 0 7 0;
#X connect 10 0 8 0;
#X connect 11 0 5 0;
#X connect 13 0 1 0;
#X restore 88 170 pd \$0-delete-if-list;
#X obj 58 340 sqlite3query delete from sssad_patch where rowid = ?1
;
#X obj 100 220 v \$0-current-patch-id;
#X obj 73 200 t b b;
#X obj 28 50 t b b b b b b;
#X obj 85 310 v \$0-current-patch-id;
#X obj 58 290 t b b;
#X connect 0 0 16 0;
#X connect 1 0 11 0;
#X connect 2 0 11 0;
#X connect 3 0 10 0;
#X connect 4 0 5 0;
#X connect 8 0 9 0;
#X connect 8 0 11 0;
#X connect 8 0 13 0;
#X connect 9 1 7 0;
#X connect 10 0 4 0;
#X connect 11 0 12 0;
#X connect 11 1 7 0;
#X connect 11 2 2 1;
#X connect 13 1 7 0;
#X connect 14 0 9 0;
#X connect 15 0 9 0;
#X connect 15 1 14 0;
#X connect 16 0 6 0;
#X connect 16 1 3 0;
#X connect 16 2 18 0;
#X connect 16 3 15 0;
#X connect 16 4 2 0;
#X connect 16 5 1 0;
#X connect 17 0 13 0;
#X connect 18 0 13 0;
#X connect 18 1 17 0;
#X restore 292 36 pd do-delete;
#X obj 67 282 s \$0-patch-rename-r;
#X obj 26 32 t b b;
#X obj 69 91 s \$0-patch-name-r;
#X obj 636 302 s \$0-patch-name-rs;
#X obj 613 353 0;
#X msg 613 373 set \$1;
#X obj 26 173 list trim;
#X obj 26 192 route <NULL>;
#X msg 26 232 set -;
#X obj 590 241 t b b b;
#X obj 26 212 b;
#X obj 99 262 s \$0-patch-name-rs;
#X msg 107 232 set \$1;
#X msg 69 72 set \$1;
#X obj 6 11 bng 15 250 50 0 empty empty empty 17 7 0 10 -262144 -1
-1;
#X obj 106 213 symbol;
#X obj 662 75 s \$0-not-in-progress;
#X obj 661 53 1;
#X obj 590 51 t b b b b;
#X obj 43 455 sqlite3-tagged-list options;
#X obj 43 395 sqlite3query select name from sssad_patch;
#X obj 20 535 s \$0-patch-name-r;
#X obj 20 335 t b b b;
#X msg 65 365 reset;
#X obj 185 415 s \$0-errors;
#X obj 20 485 v \$0-current-patch-id;
#X obj 20 505 - 1;
#X connect 0 0 30 0;
#X connect 1 0 47 0;
#X connect 2 0 3 0;
#X connect 3 0 4 0;
#X connect 4 0 5 0;
#X connect 7 0 27 0;
#X connect 8 0 9 0;
#X connect 9 0 10 0;
#X connect 11 0 12 0;
#X connect 12 0 15 0;
#X connect 12 1 38 0;
#X connect 13 0 15 0;
#X connect 14 1 19 0;
#X connect 15 0 14 0;
#X connect 15 1 16 0;
#X connect 16 0 17 0;
#X connect 17 0 14 1;
#X connect 18 0 19 0;
#X connect 19 0 8 0;
#X connect 20 0 13 0;
#X connect 22 0 23 0;
#X connect 22 0 32 0;
#X connect 25 0 24 0;
#X connect 26 0 27 0;
#X connect 26 0 42 0;
#X connect 27 0 35 0;
#X connect 30 0 27 0;
#X connect 30 1 26 0;
#X connect 33 0 34 0;
#X connect 34 0 21 0;
#X connect 35 0 36 0;
#X connect 36 0 39 0;
#X connect 36 1 44 0;
#X connect 37 0 29 0;
#X connect 37 0 40 0;
#X connect 38 0 18 0;
#X connect 38 1 33 0;
#X connect 38 2 22 0;
#X connect 39 0 37 0;
#X connect 41 0 40 0;
#X connect 41 0 29 0;
#X connect 42 0 31 0;
#X connect 43 0 30 0;
#X connect 44 0 41 0;
#X connect 46 0 45 0;
#X connect 47 0 38 0;
#X connect 47 1 2 0;
#X connect 47 2 25 0;
#X connect 47 3 46 0;
#X connect 48 0 50 0;
#X connect 48 1 49 0;
#X connect 49 0 48 0;
#X connect 49 1 53 0;
#X connect 49 2 48 2;
#X connect 51 0 54 0;
#X connect 51 1 49 0;
#X connect 51 2 48 1;
#X connect 51 2 52 0;
#X connect 52 0 49 0;
#X connect 54 0 55 0;
#X connect 55 0 50 0;
#X restore 149 288 pd \$0-guihandling;
#N canvas 26 53 587 331 \$0-filehandling 0;
#X obj 106 137 openpanel;
#X obj 380 252 s \$0-sssad;
#X obj 348 252 \$0;
#X obj 106 7 r \$0-open;
#X obj 453 172 r \$0-close;
#X msg 380 212 open \$1 \;;
#X obj 348 192 t b a;
#X obj 128 227 s \$0-do-open;
#X obj 348 172 r \$0-do-open;
#X msg 348 274 \; \$1-sssad-prepare use \$1-sssad \;;
#X msg 453 212 close \;;
#X obj 12 7 r \$0-create;
#X obj 12 137 savepanel;
#X obj 106 267 s \$0-sssad-update-gui;
#X obj 118 247 s \$0-initdb;
#X obj 152 207 v \$0-current-patch-id;
#X obj 106 157 t b a b;
#X obj 12 157 t b b a b;
#X obj 152 187 1;
#X obj 12 117 spigot;
#X obj 106 117 spigot;
#X obj 12 27 t b b;
#X obj 106 27 t b b;
#X obj 69 69 v \$0-file-not-open;
#X obj 344 68 loadbang;
#X obj 285 125 v \$0-file-not-open;
#X obj 285 93 1;
#X obj 231 23 r \$0-sssad-data;
#X obj 231 44 route open close;
#X obj 285 65 t b;
#X obj 231 65 t b;
#X obj 231 93 0;
#X connect 0 0 16 0;
#X connect 2 0 9 0;
#X connect 3 0 22 0;
#X connect 4 0 10 0;
#X connect 5 0 1 0;
#X connect 6 0 2 0;
#X connect 6 1 5 0;
#X connect 8 0 6 0;
#X connect 10 0 1 0;
#X connect 11 0 21 0;
#X connect 12 0 17 0;
#X connect 16 0 13 0;
#X connect 16 1 7 0;
#X connect 16 2 18 0;
#X connect 17 0 13 0;
#X connect 17 1 14 0;
#X connect 17 2 7 0;
#X connect 17 3 18 0;
#X connect 18 0 15 0;
#X connect 19 0 12 0;
#X connect 20 0 0 0;
#X connect 21 0 19 0;
#X connect 21 1 23 0;
#X connect 22 0 20 0;
#X connect 22 1 23 0;
#X connect 23 0 19 1;
#X connect 23 0 20 1;
#X connect 24 0 26 0;
#X connect 26 0 25 0;
#X connect 27 0 28 0;
#X connect 28 0 30 0;
#X connect 28 1 29 0;
#X connect 29 0 26 0;
#X connect 30 0 31 0;
#X connect 31 0 25 0;
#X restore 149 308 pd \$0-filehandling;
#N canvas 54 58 780 591 \$0-sssadhandling 0;
#X obj 114 453 sqlite3query begin;
#X obj 75 533 sqlite3query commit;
#X msg 94 483 save;
#X obj 94 503 s SSSAD_ADMIN;
#X obj 35 19 r SSSAD_ADMIN;
#X obj 35 99 list trim;
#X obj 35 119 route persist;
#X obj 217 507 s \$0-errors;
#X obj 35 139 list split 1;
#X obj 69 159 route list;
#X obj 69 209 symbol NULL;
#X obj 62 249 list;
#X obj 126 179 t a b;
#X obj 69 179 t b a;
#X obj 227 135 list;
#X obj 227 155 route bang;
#X obj 284 334 sqlite3query insert into sssad_list(sssad_data_id \,
data) values(?2 \, ?1);
#X obj 284 275 list;
#X obj 35 423 s;
#X obj 153 209 s \$0-send-forward;
#X obj 248 115 r \$0-send-forward;
#X obj 330 195 f;
#X obj 75 433 t b b b;
#X obj 35 229 t b a;
#X obj 35 269 v \$0-current-patch-id;
#X obj 35 289 list;
#X obj 134 423 r \$0-sssad-prepare;
#N canvas 414 275 580 363 handle-add 0;
#X obj 39 25 r \$0-add;
#X obj 114 175 symbol \$0-do-add;
#X obj 69 265 v \$0-current-patch-id;
#X obj 84 225 sqlite3query insert into sssad_patch(name) values(NULL)
;
#X msg 99 195 reset;
#X obj 69 245 sqlite3rowid;
#X text 31 6 do this when click on Add;
#X obj 39 285 s \$0-sssad-update-gui;
#X obj 54 315 outlet;
#X obj 270 176 r \$0-sssad-prepare;
#X obj 247 315 s \$0-errors;
#X obj 114 315 outlet;
#X obj 39 65 spigot;
#X obj 39 105 spigot;
#X obj 72 85 r \$0-sssad-enabled;
#X obj 39 125 t b b b b b b b b;
#X obj 72 45 r \$0-not-in-progress;
#X obj 170 128 0;
#X obj 171 150 s \$0-not-in-progress;
#X obj 12 335 s \$0-not-in-progress;
#X obj 11 313 1;
#X connect 0 0 12 0;
#X connect 1 0 11 0;
#X connect 3 1 10 0;
#X connect 4 0 3 0;
#X connect 5 0 2 0;
#X connect 9 0 3 0;
#X connect 9 0 5 0;
#X connect 12 0 13 0;
#X connect 13 0 15 0;
#X connect 14 0 13 1;
#X connect 15 0 20 0;
#X connect 15 1 7 0;
#X connect 15 2 8 0;
#X connect 15 3 5 0;
#X connect 15 4 3 0;
#X connect 15 5 4 0;
#X connect 15 6 1 0;
#X connect 15 7 17 0;
#X connect 16 0 12 1;
#X connect 17 0 18 0;
#X connect 20 0 19 0;
#X restore 114 391 pd handle-add;
#N canvas 0 22 506 487 handle-update 0;
#X obj 51 43 r \$0-update;
#X obj 77 223 symbol \$0-do-update;
#X obj 51 273 outlet;
#X obj 77 253 outlet;
#X obj 51 143 spigot;
#X obj 84 123 r \$0-sssad-enabled;
#X text 35 25 do this when click on Update;
#X obj 51 85 spigot;
#X obj 84 65 r \$0-not-in-progress;
#X obj 182 148 0;
#X obj 183 170 s \$0-not-in-progress;
#X obj 24 355 s \$0-not-in-progress;
#X obj 23 333 1;
#X obj 51 173 t b b b b;
#X connect 0 0 4 0;
#X connect 1 0 3 0;
#X connect 4 0 13 0;
#X connect 5 0 4 1;
#X connect 8 0 7 1;
#X connect 9 0 10 0;
#X connect 12 0 11 0;
#X connect 13 0 12 0;
#X connect 13 1 2 0;
#X connect 13 2 1 0;
#X connect 13 3 9 0;
#X restore 45 339 pd handle-update;
#X obj 450 374 s \$0-errors;
#X obj 348 175 r \$0-sssad-data-id;
#X obj 455 297 r \$0-sssad-prepare;
#N canvas 0 22 506 370 perform-update 0;
#X obj 45 32 r \$0-sssad-prepare;
#X obj 237 317 s \$0-errors;
#X obj 69 101 sqlite3query update sssad_data set data = ?3 where sssad_patch_id
= ?1 and sssad_key = ?2;
#X obj 69 277 sqlite3query delete from sssad_list where sssad_data_id
= ?1;
#X obj 69 52 r \$0-do-update;
#X obj 69 73 t b a a;
#X obj 69 144 list split 2;
#X obj 69 174 sqlite3query select rowid from sssad_data where sssad_patch_id
= ?1 and sssad_key = ?2;
#X obj 69 247 t b a;
#X obj 79 214 s \$0-sssad-data-id;
#X obj 378 328 outlet;
#X connect 0 0 2 0;
#X connect 0 0 3 0;
#X connect 0 0 7 0;
#X connect 2 1 1 0;
#X connect 2 2 7 0;
#X connect 3 1 1 0;
#X connect 3 2 10 0;
#X connect 4 0 5 0;
#X connect 5 0 2 0;
#X connect 5 1 2 0;
#X connect 5 2 6 0;
#X connect 6 0 7 0;
#X connect 7 0 8 0;
#X connect 7 0 9 0;
#X connect 7 1 1 0;
#X connect 8 0 3 0;
#X connect 8 1 3 0;
#X restore 227 63 pd perform-update;
#N canvas 0 22 546 316 perform-add 0;
#X obj 23 89 sqlite3query insert into sssad_data(sssad_patch_id \,
sssad_key \, data) values(?1 \, ?2 \, ?3);
#X obj 353 154 sqlite3rowid;
#X obj 23 39 r \$0-do-add;
#X obj 326 134 t b b;
#X obj 23 59 t b a;
#X obj 378 45 r \$0-sssad-prepare;
#X obj 175 131 s \$0-errors;
#X obj 353 184 s \$0-sssad-data-id;
#X obj 326 223 outlet;
#X connect 0 1 6 0;
#X connect 0 2 3 0;
#X connect 1 0 7 0;
#X connect 2 0 4 0;
#X connect 3 0 8 0;
#X connect 3 1 1 0;
#X connect 4 0 0 0;
#X connect 4 1 0 0;
#X connect 5 0 0 0;
#X connect 5 0 1 0;
#X restore 245 83 pd perform-add;
#X obj 35 69 spigot;
#X obj 68 49 r \$0-sssad-enabled;
#X obj 284 295 t b a;
#X text 112 371 do this when click on Add;
#X text 43 319 do this when click on Update;
#X text 304 405 (1) when either update or add is selected \, do any
preping needed for those operations \, then set the require operation
by sending a symbol to the [send] object at the end of the [r SSSAD_ADMIN]
chain. \; (2) To help with the speed of writing to disk \, wrap the
[save( message (to [s SSSAD_ADMIN]) in a 'BEGIN/COMMIT' SQL statement
pair \;;
#X obj 284 215 until;
#X obj 284 235 list append;
#X obj 284 255 list split 1;
#X obj 385 215 b;
#X obj 284 175 t b a b;
#N canvas 0 22 558 432 do-sssad-load 0;
#X obj 17 119 r \$0-sssad-prepare;
#X obj 299 209 s \$0-errors;
#X obj 98 89 until;
#X obj 158 89 v \$0-current-patch-id;
#X obj 130 202 list split 1;
#X obj 212 308 list trim;
#X obj 212 328 route NULL;
#X obj 98 149 sqlite3query select rowid \, sssad_key \, data from sssad_data
where sssad_patch_id = ?1;
#X obj 138 288 route float;
#X obj 130 222 s \$0-sssad-data-id;
#X obj 98 268 list split 1;
#X obj 98 248 list;
#X obj 98 182 t b a;
#X obj 98 323 list;
#N canvas 514 60 450 375 get-list 0;
#X obj 97 52 inlet;
#X obj 73 289 outlet;
#X obj 168 125 r \$0-sssad-data-id;
#X obj 107 121 until;
#X obj 107 155 sqlite3query select data from sssad_list where sssad_data_id
= ?1;
#X obj 97 89 t b b;
#X obj 73 255 sqlite3-list;
#X obj 354 195 t b b;
#X obj 168 95 r \$0-sssad-prepare;
#X connect 0 0 5 0;
#X connect 2 0 4 0;
#X connect 3 0 4 0;
#X connect 4 0 6 1;
#X connect 4 2 7 0;
#X connect 5 0 3 0;
#X connect 5 1 6 2;
#X connect 6 0 1 0;
#X connect 7 0 6 0;
#X connect 7 1 3 1;
#X connect 8 0 4 0;
#X restore 212 348 pd get-list;
#X obj 98 343 s SSSAD;
#X obj 79 39 spigot;
#X obj 131 19 r \$0-sssad-enabled;
#X obj 79 59 t b b b;
#X obj 79 383 s SSSAD_ADMIN;
#X msg 79 363 set;
#X obj 299 189 list prepend handle-patch-name-2;
#X obj 16 19 r \$0-sssad-load;
#X connect 0 0 7 0;
#X connect 2 0 7 0;
#X connect 3 0 7 0;
#X connect 4 0 9 0;
#X connect 4 1 11 1;
#X connect 5 0 6 0;
#X connect 6 0 14 0;
#X connect 6 1 13 1;
#X connect 7 0 12 0;
#X connect 7 1 21 0;
#X connect 7 2 2 1;
#X connect 8 0 13 1;
#X connect 8 1 5 0;
#X connect 10 0 13 0;
#X connect 10 1 8 0;
#X connect 11 0 10 0;
#X connect 12 0 11 0;
#X connect 12 1 4 0;
#X connect 13 0 15 0;
#X connect 14 0 13 1;
#X connect 16 0 18 0;
#X connect 17 0 16 1;
#X connect 18 0 20 0;
#X connect 18 1 2 0;
#X connect 18 2 3 0;
#X connect 20 0 19 0;
#X connect 21 0 1 0;
#X connect 22 0 16 0;
#X restore 457 61 pd do-sssad-load;
#X connect 0 1 7 0;
#X connect 1 1 7 0;
#X connect 2 0 3 0;
#X connect 4 0 34 0;
#X connect 5 0 6 0;
#X connect 6 0 8 0;
#X connect 8 0 23 0;
#X connect 8 1 9 0;
#X connect 9 0 13 0;
#X connect 9 1 12 0;
#X connect 10 0 11 1;
#X connect 11 0 25 1;
#X connect 12 0 11 1;
#X connect 12 1 19 0;
#X connect 13 0 10 0;
#X connect 13 1 19 0;
#X connect 14 0 15 0;
#X connect 15 1 44 0;
#X connect 16 1 29 0;
#X connect 17 0 36 0;
#X connect 20 0 14 1;
#X connect 21 0 17 1;
#X connect 22 0 1 0;
#X connect 22 1 2 0;
#X connect 22 2 0 0;
#X connect 23 0 24 0;
#X connect 23 1 11 0;
#X connect 24 0 25 0;
#X connect 25 0 18 0;
#X connect 26 0 0 0;
#X connect 26 0 1 0;
#X connect 27 0 22 0;
#X connect 27 1 18 1;
#X connect 28 0 22 0;
#X connect 28 1 18 1;
#X connect 30 0 21 1;
#X connect 31 0 16 0;
#X connect 32 0 14 0;
#X connect 33 0 14 0;
#X connect 34 0 5 0;
#X connect 35 0 34 1;
#X connect 36 0 16 0;
#X connect 36 1 16 0;
#X connect 40 0 41 0;
#X connect 41 0 42 0;
#X connect 42 0 17 0;
#X connect 42 1 41 1;
#X connect 42 2 43 0;
#X connect 43 0 40 1;
#X connect 44 0 40 0;
#X connect 44 1 41 1;
#X connect 44 2 21 0;
#X restore 149 328 pd \$0-sssadhandling;
#X obj 517 41 r SSSAD_ADMIN;
#X obj 529 125 print SSSAD_ADMIN:;
#X connect 17 0 16 0;
#X connect 18 0 17 0;
#X connect 19 0 17 0;
#X connect 21 0 20 0;
#X connect 22 0 24 0;
#X connect 23 0 24 1;
#X connect 23 0 25 1;
#X connect 24 0 26 0;
#X connect 25 0 49 0;
#X connect 27 0 29 0;
#X connect 28 0 30 0;
#X connect 29 0 28 0;
#X connect 29 1 30 1;
#X connect 30 0 31 0;
#X connect 32 0 34 0;
#X connect 33 0 32 0;
#X connect 35 0 32 0;
#X connect 36 0 37 0;
#X connect 38 0 39 0;
#X connect 40 0 41 0;
#X connect 48 0 25 0;
#X coords 0 -1 1 1 132 174 2 20 20;
