#N canvas 605 104 450 300 10;
#X obj 55 45 inlet data;
#X obj 124 45 inlet init;
#X obj 55 114 list prepend;
#X obj 159 142 t l;
#X obj 55 157 t b l;
#X obj 192 200 list;
#X obj 192 223 outlet list;
#X obj 272 223 outlet bang-for-next;
#X obj 192 45 inlet end-bang;
#X connect 0 0 2 0;
#X connect 1 0 2 1;
#X connect 2 0 3 0;
#X connect 2 0 4 0;
#X connect 3 0 2 1;
#X connect 4 0 7 0;
#X connect 4 1 5 1;
#X connect 5 0 6 0;
#X connect 8 0 5 0;
