#N canvas 256 38 606 661 10;
#X obj 57 29 inlet list-pitch-velocity-gate-channel;
#X obj 57 51 t b a;
#X obj 57 177 list append;
#X obj 57 113 f;
#X obj 134 137 + 1;
#X obj 57 134 % 128;
#X obj 57 155 t f f;
#X msg 150 75 0;
#X obj 150 53 loadbang;
#X obj 57 200 route 0 1 2 3 4 5 6 7 8 9 10 11 12 13 14 15 16 17 18
19 20 21 22 23 24 25 26 27 28 29 30 31 32 33 34 35 36 37 38 39 40 41
42 43 44 45 46 47 48 49 50 51 52 53 54 55 56 57 58 59 60 61 62 63 64
65 66 67 68 69 70 71 72 73 74 75 76 77 78 79 80 81 82 83 84 85 86 87
88 89 90 91 92 93 94 95 96 97 98 99 100 101 102 103 104 105 106 107
108 109 110 111 112 113 114 115 116 117 118 119 120 121 122 123 124
125 126 127;
#X obj 57 311 sendnote;
#X obj 57 331 sendnote;
#X obj 57 351 sendnote;
#X obj 57 371 sendnote;
#X obj 57 391 sendnote;
#X obj 57 411 sendnote;
#X obj 57 431 sendnote;
#X obj 57 451 sendnote;
#X obj 57 471 sendnote;
#X obj 57 491 sendnote;
#X obj 57 511 sendnote;
#X obj 57 531 sendnote;
#X obj 57 551 sendnote;
#X obj 57 571 sendnote;
#X obj 57 591 sendnote;
#X obj 57 611 sendnote;
#X obj 117 311 sendnote;
#X obj 117 331 sendnote;
#X obj 117 351 sendnote;
#X obj 117 371 sendnote;
#X obj 117 391 sendnote;
#X obj 117 411 sendnote;
#X obj 117 431 sendnote;
#X obj 117 451 sendnote;
#X obj 117 471 sendnote;
#X obj 117 491 sendnote;
#X obj 117 511 sendnote;
#X obj 117 531 sendnote;
#X obj 117 551 sendnote;
#X obj 117 571 sendnote;
#X obj 117 591 sendnote;
#X obj 117 611 sendnote;
#X obj 177 311 sendnote;
#X obj 177 331 sendnote;
#X obj 177 351 sendnote;
#X obj 177 371 sendnote;
#X obj 177 391 sendnote;
#X obj 177 411 sendnote;
#X obj 177 431 sendnote;
#X obj 177 451 sendnote;
#X obj 177 471 sendnote;
#X obj 177 491 sendnote;
#X obj 177 511 sendnote;
#X obj 177 531 sendnote;
#X obj 177 551 sendnote;
#X obj 177 571 sendnote;
#X obj 177 591 sendnote;
#X obj 177 611 sendnote;
#X obj 237 311 sendnote;
#X obj 237 331 sendnote;
#X obj 237 351 sendnote;
#X obj 237 371 sendnote;
#X obj 237 391 sendnote;
#X obj 237 411 sendnote;
#X obj 237 431 sendnote;
#X obj 237 451 sendnote;
#X obj 237 471 sendnote;
#X obj 237 491 sendnote;
#X obj 237 511 sendnote;
#X obj 237 531 sendnote;
#X obj 237 551 sendnote;
#X obj 237 571 sendnote;
#X obj 237 591 sendnote;
#X obj 237 611 sendnote;
#X obj 297 311 sendnote;
#X obj 297 331 sendnote;
#X obj 297 351 sendnote;
#X obj 297 371 sendnote;
#X obj 297 391 sendnote;
#X obj 297 411 sendnote;
#X obj 297 431 sendnote;
#X obj 297 451 sendnote;
#X obj 297 471 sendnote;
#X obj 297 491 sendnote;
#X obj 297 511 sendnote;
#X obj 297 531 sendnote;
#X obj 297 551 sendnote;
#X obj 297 571 sendnote;
#X obj 297 591 sendnote;
#X obj 297 611 sendnote;
#X obj 357 311 sendnote;
#X obj 357 331 sendnote;
#X obj 357 351 sendnote;
#X obj 357 371 sendnote;
#X obj 357 391 sendnote;
#X obj 357 411 sendnote;
#X obj 357 431 sendnote;
#X obj 357 451 sendnote;
#X obj 357 471 sendnote;
#X obj 357 491 sendnote;
#X obj 357 511 sendnote;
#X obj 357 531 sendnote;
#X obj 357 551 sendnote;
#X obj 357 571 sendnote;
#X obj 357 591 sendnote;
#X obj 357 611 sendnote;
#X obj 417 311 sendnote;
#X obj 417 331 sendnote;
#X obj 417 351 sendnote;
#X obj 417 371 sendnote;
#X obj 417 391 sendnote;
#X obj 417 411 sendnote;
#X obj 417 431 sendnote;
#X obj 417 451 sendnote;
#X obj 417 471 sendnote;
#X obj 417 491 sendnote;
#X obj 417 511 sendnote;
#X obj 417 531 sendnote;
#X obj 417 551 sendnote;
#X obj 417 571 sendnote;
#X obj 417 591 sendnote;
#X obj 417 611 sendnote;
#X obj 477 311 sendnote;
#X obj 477 331 sendnote;
#X obj 477 351 sendnote;
#X obj 477 371 sendnote;
#X obj 477 391 sendnote;
#X obj 477 411 sendnote;
#X obj 477 431 sendnote;
#X obj 477 451 sendnote;
#X obj 477 471 sendnote;
#X obj 477 491 sendnote;
#X obj 477 511 sendnote;
#X obj 477 531 sendnote;
#X obj 477 551 sendnote;
#X obj 477 571 sendnote;
#X obj 477 591 sendnote;
#X obj 477 611 sendnote;
#X connect 0 0 1 0;
#X connect 1 0 3 0;
#X connect 1 1 2 1;
#X connect 2 0 9 0;
#X connect 3 0 5 0;
#X connect 4 0 3 1;
#X connect 5 0 6 0;
#X connect 6 0 2 0;
#X connect 6 1 4 0;
#X connect 7 0 3 1;
#X connect 8 0 7 0;
#X connect 9 0 10 0;
#X connect 9 1 11 0;
#X connect 9 2 12 0;
#X connect 9 3 13 0;
#X connect 9 4 14 0;
#X connect 9 5 15 0;
#X connect 9 6 16 0;
#X connect 9 7 17 0;
#X connect 9 8 18 0;
#X connect 9 9 19 0;
#X connect 9 10 20 0;
#X connect 9 11 21 0;
#X connect 9 12 22 0;
#X connect 9 13 23 0;
#X connect 9 14 24 0;
#X connect 9 15 25 0;
#X connect 9 16 26 0;
#X connect 9 17 27 0;
#X connect 9 18 28 0;
#X connect 9 19 29 0;
#X connect 9 20 30 0;
#X connect 9 21 31 0;
#X connect 9 22 32 0;
#X connect 9 23 33 0;
#X connect 9 24 34 0;
#X connect 9 25 35 0;
#X connect 9 26 36 0;
#X connect 9 27 37 0;
#X connect 9 28 38 0;
#X connect 9 29 39 0;
#X connect 9 30 40 0;
#X connect 9 31 41 0;
#X connect 9 32 42 0;
#X connect 9 33 43 0;
#X connect 9 34 44 0;
#X connect 9 35 45 0;
#X connect 9 36 46 0;
#X connect 9 37 47 0;
#X connect 9 38 48 0;
#X connect 9 39 49 0;
#X connect 9 40 50 0;
#X connect 9 41 51 0;
#X connect 9 42 52 0;
#X connect 9 43 53 0;
#X connect 9 44 54 0;
#X connect 9 45 55 0;
#X connect 9 46 56 0;
#X connect 9 47 57 0;
#X connect 9 48 58 0;
#X connect 9 49 59 0;
#X connect 9 50 60 0;
#X connect 9 51 61 0;
#X connect 9 52 62 0;
#X connect 9 53 63 0;
#X connect 9 54 64 0;
#X connect 9 55 65 0;
#X connect 9 56 66 0;
#X connect 9 57 67 0;
#X connect 9 58 68 0;
#X connect 9 59 69 0;
#X connect 9 60 70 0;
#X connect 9 61 71 0;
#X connect 9 62 72 0;
#X connect 9 63 73 0;
#X connect 9 64 74 0;
#X connect 9 65 75 0;
#X connect 9 66 76 0;
#X connect 9 67 77 0;
#X connect 9 68 78 0;
#X connect 9 69 79 0;
#X connect 9 70 80 0;
#X connect 9 71 81 0;
#X connect 9 72 82 0;
#X connect 9 73 83 0;
#X connect 9 74 84 0;
#X connect 9 75 85 0;
#X connect 9 76 86 0;
#X connect 9 77 87 0;
#X connect 9 78 88 0;
#X connect 9 79 89 0;
#X connect 9 80 90 0;
#X connect 9 81 91 0;
#X connect 9 82 92 0;
#X connect 9 83 93 0;
#X connect 9 84 94 0;
#X connect 9 85 95 0;
#X connect 9 86 96 0;
#X connect 9 87 97 0;
#X connect 9 88 98 0;
#X connect 9 89 99 0;
#X connect 9 90 100 0;
#X connect 9 91 101 0;
#X connect 9 92 102 0;
#X connect 9 93 103 0;
#X connect 9 94 104 0;
#X connect 9 95 105 0;
#X connect 9 96 106 0;
#X connect 9 97 107 0;
#X connect 9 98 108 0;
#X connect 9 99 109 0;
#X connect 9 100 110 0;
#X connect 9 101 111 0;
#X connect 9 102 112 0;
#X connect 9 103 113 0;
#X connect 9 104 114 0;
#X connect 9 105 115 0;
#X connect 9 106 116 0;
#X connect 9 107 117 0;
#X connect 9 108 118 0;
#X connect 9 109 119 0;
#X connect 9 110 120 0;
#X connect 9 111 121 0;
#X connect 9 112 122 0;
#X connect 9 113 123 0;
#X connect 9 114 124 0;
#X connect 9 115 125 0;
#X connect 9 116 126 0;
#X connect 9 117 127 0;
#X connect 9 118 128 0;
#X connect 9 119 129 0;
#X connect 9 120 130 0;
#X connect 9 121 131 0;
#X connect 9 122 132 0;
#X connect 9 123 133 0;
#X connect 9 124 134 0;
#X connect 9 125 135 0;
#X connect 9 126 136 0;
#X connect 9 127 137 0;
