#N canvas 425 205 797 478 10;
#X obj 39 148 table \$0-pitch;
#X obj 39 168 table \$0-rhythm;
#X obj 39 188 table \$0-velocity;
#X obj 390 245 loadbang;
#X obj 458 305 f \$3;
#X obj 424 305 f \$2;
#X obj 390 305 f \$1;
#X msg 560 172 start;
#X msg 560 192 stop;
#X msg 560 212 cont;
#X msg 560 232 reset;
#X msg 560 252 pitch <midi-note-list>;
#X msg 560 272 rhythm <beat-division-list>;
#X msg 560 292 velocity <midi-velocity-list>;
#X msg 560 312 beat <millisecond-interval>;
#X msg 560 332 program <midi-program-number>;
#X msg 560 352 channel <midi-channel-number>;
#X obj 390 270 t b b b b;
#X obj 492 305 f \$4;
#X obj 156 33 cnv 15 250 40 empty empty empty 20 12 0 14 -233017 -66577
0;
#X obj 183 44 inlet;
#X obj 390 419 v \$0-beat;
#X obj 454 381 v \$0-program;
#X obj 424 362 t b f;
#X obj 424 400 s \$0-send-program;
#X obj 458 343 v \$0-channel;
#X obj 492 324 v \$0-gate;
#X msg 560 372 gate <millisecond-interval>;
#X obj 38 116 pgmout;
#X obj 38 35 r \$0-send-program;
#X obj 38 55 t b b;
#X obj 71 76 v \$0-channel;
#X obj 38 96 v \$0-program;
#X obj 183 288 outlet;
#X obj 183 118 route start stop cont reset pitch rhythm velocity beat
program channel gate show;
#N canvas 352 55 503 531 \$0-do-velocity 0;
#X obj 77 45 inlet;
#X obj 115 158 symbol \$0-velocity;
#X obj 135 88 list length;
#X obj 115 178 pack symbol 0;
#X obj 77 262 list split 1;
#X obj 44 314 list append;
#X obj 77 69 t l b b l;
#X msg 96 237 0;
#X obj 99 398 tabwrite \$0-velocity;
#X obj 121 345 f;
#X obj 151 345 + 1;
#X obj 121 369 t f f;
#X obj 135 107 t f f;
#X obj 165 126 v \$0-velocity-size;
#X obj 77 284 t b f b;
#X msg 115 197 \; \$1 resize \$2 \;;
#X connect 0 0 6 0;
#X connect 1 0 3 0;
#X connect 2 0 12 0;
#X connect 3 0 15 0;
#X connect 4 0 14 0;
#X connect 4 1 5 1;
#X connect 5 0 4 0;
#X connect 6 0 4 0;
#X connect 6 1 7 0;
#X connect 6 2 1 0;
#X connect 6 3 2 0;
#X connect 7 0 9 1;
#X connect 9 0 11 0;
#X connect 10 0 9 1;
#X connect 11 0 10 0;
#X connect 11 1 8 1;
#X connect 12 0 3 1;
#X connect 12 1 13 0;
#X connect 14 0 5 0;
#X connect 14 1 8 0;
#X connect 14 2 9 0;
#X restore 343 163 pd \$0-do-velocity;
#N canvas 0 22 497 599 \$0-do-rhythm 0;
#X obj 77 45 inlet;
#X obj 135 88 list length;
#X obj 115 178 pack symbol 0;
#X obj 77 262 list split 1;
#X obj 44 314 list append;
#X obj 77 69 t l b b l;
#X msg 96 237 0;
#X obj 121 345 f;
#X obj 151 345 + 1;
#X obj 121 369 t f f;
#X obj 135 107 t f f;
#X obj 77 284 t b f b;
#X msg 115 197 \; \$1 resize \$2 \;;
#X obj 165 126 v \$0-rhythm-size;
#X obj 115 158 symbol \$0-rhythm;
#X obj 99 398 tabwrite \$0-rhythm;
#X connect 0 0 5 0;
#X connect 1 0 10 0;
#X connect 2 0 12 0;
#X connect 3 0 11 0;
#X connect 3 1 4 1;
#X connect 4 0 3 0;
#X connect 5 0 3 0;
#X connect 5 1 6 0;
#X connect 5 2 14 0;
#X connect 5 3 1 0;
#X connect 6 0 7 1;
#X connect 7 0 9 0;
#X connect 8 0 7 1;
#X connect 9 0 8 0;
#X connect 9 1 15 1;
#X connect 10 0 2 1;
#X connect 10 1 13 0;
#X connect 11 0 4 0;
#X connect 11 1 15 0;
#X connect 11 2 7 0;
#X connect 14 0 2 0;
#X restore 316 184 pd \$0-do-rhythm;
#N canvas 0 22 525 556 \$0-do-pitch 0;
#X obj 187 65 inlet;
#X obj 238 116 list length;
#X obj 221 209 pack symbol 0;
#X obj 187 297 list split 1;
#X obj 158 374 list append;
#X obj 187 89 t l b b l;
#X msg 204 271 0;
#X obj 197 405 f;
#X obj 234 405 + 1;
#X obj 197 429 t f f;
#X obj 238 137 t f f;
#X obj 158 344 t b f b;
#X msg 221 230 \; \$1 resize \$2 \;;
#X obj 265 158 v \$0-pitch-size;
#X obj 221 188 symbol \$0-pitch;
#X obj 177 458 tabwrite \$0-pitch;
#X obj 77 328 t l;
#X connect 0 0 5 0;
#X connect 1 0 10 0;
#X connect 2 0 12 0;
#X connect 3 0 11 0;
#X connect 3 1 4 1;
#X connect 4 0 16 0;
#X connect 5 0 3 0;
#X connect 5 1 6 0;
#X connect 5 2 14 0;
#X connect 5 3 1 0;
#X connect 6 0 7 1;
#X connect 7 0 9 0;
#X connect 8 0 7 1;
#X connect 9 0 8 0;
#X connect 9 1 15 1;
#X connect 10 0 2 1;
#X connect 10 1 13 0;
#X connect 11 0 4 0;
#X connect 11 1 15 0;
#X connect 11 2 7 0;
#X connect 14 0 2 0;
#X connect 16 0 3 0;
#X restore 290 204 pd \$0-do-pitch;
#N canvas 262 73 719 693 \$0-doit 0;
#X obj 171 35 inlet start;
#X obj 312 35 inlet stop;
#X obj 391 35 inlet cont;
#X obj 471 35 inlet reset;
#X msg 307 253 0;
#X obj 171 253 t b b b b b b b;
#X obj 96 575 v \$0-delay;
#X obj 96 596 delay;
#X obj 171 61 t b b b;
#X obj 93 616 cnv 15 70 27 empty empty empty 20 12 0 14 -258113 -66577
0;
#X obj 96 621 s \$0-again;
#X obj 239 59 cnv 15 70 30 empty empty empty 20 12 0 14 -258113 -66577
0;
#X obj 242 65 r \$0-again;
#N canvas 0 22 454 304 passthrough 0;
#X obj 160 47 inlet;
#X obj 160 77 outlet;
#X connect 0 0 1 0;
#X coords 0 -1 1 1 4 4 2 100 100;
#X restore 537 316 pd passthrough;
#X text 343 251 <-- this zeros out the counters at the start;
#X obj 271 99 cnv 15 80 100 empty empty empty 20 12 0 14 -257985 -66577
0;
#X obj 279 175 spigot;
#X msg 312 153 0;
#X msg 320 131 1;
#X obj 293 110 t b b;
#X text 358 137 <-- runtime controller;
#X obj 215 430 cnv 15 160 140 empty empty empty 20 12 0 14 -203904
-66577 0;
#X obj 225 476 f;
#X obj 225 498 %;
#X obj 225 520 t f f;
#X obj 258 476 + 1;
#X obj 251 456 v \$0-velocity-size;
#X obj 252 544 tabread \$0-velocity;
#X obj 378 320 cnv 15 150 250 empty empty empty 20 12 0 14 -232576
-66577 0;
#X obj 390 377 f;
#X obj 390 398 %;
#X obj 390 419 t f f;
#X obj 425 378 + 1;
#X obj 419 357 v \$0-rhythm-size;
#X obj 417 440 tabread \$0-rhythm;
#X obj 432 482 v \$0-beat;
#X obj 417 503 *;
#X obj 417 461 t f b b;
#X obj 442 503 v \$0-gate;
#X obj 417 545 *;
#X obj 417 524 t f f;
#X obj 444 545 v \$0-delay;
#X obj 531 510 cnv 15 100 60 empty empty empty 20 12 0 14 -233017 -66577
0;
#X obj 537 543 v \$0-channel;
#X obj 62 410 cnv 15 150 160 empty empty empty 20 12 0 14 -233017 -66577
0;
#X obj 69 461 f;
#X obj 69 482 %;
#X obj 69 503 t f f;
#X obj 103 461 + 1;
#X obj 96 544 t b f;
#X obj 103 439 v \$0-pitch-size;
#X obj 96 523 tabread \$0-pitch;
#X obj 229 597 pack f f f f;
#X obj 229 622 outlet;
#X connect 0 0 8 0;
#X connect 1 0 17 0;
#X connect 2 0 19 0;
#X connect 3 0 4 0;
#X connect 4 0 22 1;
#X connect 4 0 29 1;
#X connect 4 0 45 1;
#X connect 5 0 45 0;
#X connect 5 1 50 0;
#X connect 5 2 22 0;
#X connect 5 3 26 0;
#X connect 5 4 29 0;
#X connect 5 5 33 0;
#X connect 5 6 13 0;
#X connect 6 0 7 0;
#X connect 7 0 10 0;
#X connect 8 0 5 0;
#X connect 8 1 4 0;
#X connect 8 2 18 0;
#X connect 12 0 16 0;
#X connect 13 0 43 0;
#X connect 16 0 5 0;
#X connect 17 0 16 1;
#X connect 18 0 16 1;
#X connect 19 0 16 0;
#X connect 19 1 18 0;
#X connect 22 0 23 0;
#X connect 23 0 24 0;
#X connect 24 0 25 0;
#X connect 24 1 27 0;
#X connect 25 0 22 1;
#X connect 26 0 23 1;
#X connect 27 0 52 1;
#X connect 29 0 30 0;
#X connect 30 0 31 0;
#X connect 31 0 32 0;
#X connect 31 1 34 0;
#X connect 32 0 29 1;
#X connect 33 0 30 1;
#X connect 34 0 37 0;
#X connect 35 0 36 1;
#X connect 36 0 40 0;
#X connect 37 0 36 0;
#X connect 37 1 35 0;
#X connect 37 2 38 0;
#X connect 38 0 39 1;
#X connect 39 0 52 2;
#X connect 40 0 39 0;
#X connect 40 1 41 0;
#X connect 43 0 52 3;
#X connect 45 0 46 0;
#X connect 46 0 47 0;
#X connect 47 0 48 0;
#X connect 47 1 51 0;
#X connect 48 0 45 1;
#X connect 49 0 6 0;
#X connect 49 1 52 0;
#X connect 50 0 46 1;
#X connect 51 0 49 0;
#X connect 52 0 53 0;
#X restore 183 267 pd \$0-doit;
#X connect 3 0 17 0;
#X connect 4 0 25 0;
#X connect 5 0 23 0;
#X connect 6 0 21 0;
#X connect 17 0 6 0;
#X connect 17 1 5 0;
#X connect 17 2 4 0;
#X connect 17 3 18 0;
#X connect 18 0 26 0;
#X connect 20 0 34 0;
#X connect 23 0 24 0;
#X connect 23 1 22 0;
#X connect 29 0 30 0;
#X connect 30 0 32 0;
#X connect 30 1 31 0;
#X connect 31 0 28 1;
#X connect 32 0 28 0;
#X connect 34 0 38 0;
#X connect 34 1 38 1;
#X connect 34 2 38 2;
#X connect 34 3 38 3;
#X connect 34 4 37 0;
#X connect 34 5 36 0;
#X connect 34 6 35 0;
#X connect 34 7 21 0;
#X connect 34 8 23 0;
#X connect 34 9 25 0;
#X connect 34 10 26 0;
#X connect 38 0 33 0;
