#N canvas 173 38 1083 740 10;
#X obj 635 45 cnv 15 350 280 empty empty Make_Sets_From_Scratch 5 8
0 12 -233017 -66577 0;
#X obj 470 281 cnv 15 150 60 empty empty Recall_Stuff 5 8 0 12 -233017
-66577 0;
#X obj 470 196 cnv 15 150 60 empty empty Store_Stuff 5 8 0 12 -233017
-66577 0;
#X obj 470 112 cnv 15 110 60 empty empty Install_Tables 5 8 0 12 -233017
-66577 0;
#X obj 470 481 cnv 15 450 120 empty empty Performance 5 8 0 12 -233017
-66577 0;
#X msg 499 509 start;
#X msg 499 531 stop;
#X msg 499 553 cont;
#X msg 499 574 reset;
#X msg 776 365 pitch 37 39 41 42 44 46 48;
#X msg 776 387 rhythm 1 3 5 7;
#X msg 776 409 velocity 66 9 0 4 99;
#X floatatom 737 108 5 0 0 0 add-pitch - -;
#X msg 776 127 add2 \$1;
#X msg 776 87 set pitch;
#X floatatom 737 188 5 0 0 0 add-rhythm - -;
#X msg 776 207 add2 \$1;
#X floatatom 737 268 5 0 0 0 add-velocity - -;
#X msg 776 287 add2 \$1;
#X msg 776 167 set rhythm;
#X msg 776 247 set velocity;
#X floatatom 844 538 5 0 0 0 gate(%) - -;
#X obj 844 555 / 100;
#X obj 482 130 bng 15 250 50 0 empty empty empty 17 7 0 10 -262144
-1 -1;
#X obj 482 148 t b b b;
#N canvas 46 92 1188 624 load-data-set 0;
#X obj 58 184 SQLquery \$0-db;
#X obj 104 158 t b;
#X obj 40 76 bng 15 250 50 0 empty empty empty 17 7 0 10 -262144 -1
-1;
#X obj 139 138 f;
#X floatatom 164 118 5 0 0 0 - - -;
#X obj 173 216 SQLquery-helper;
#X obj 285 216 bng 15 250 50 0 empty empty empty 17 7 0 10 -262144
-1 -1;
#X msg 216 236;
#X msg 173 256;
#X msg 139 158 select pitch from pitches where grp = \$1 order by ord
;
#X obj 58 257 t b l;
#X msg 22 278 list set pitch;
#X obj 22 299 list append;
#X obj 22 320 list trim;
#X obj 22 341 outlet;
#X obj 352 294 SQLquery \$0-db;
#X obj 398 268 t b;
#X obj 334 186 bng 15 250 50 0 empty empty empty 17 7 0 10 -262144
-1 -1;
#X obj 433 248 f;
#X floatatom 458 228 5 0 0 0 - - -;
#X obj 467 326 SQLquery-helper;
#X obj 579 326 bng 15 250 50 0 empty empty empty 17 7 0 10 -262144
-1 -1;
#X msg 510 346;
#X msg 467 366;
#X obj 352 367 t b l;
#X obj 316 409 list append;
#X obj 316 430 list trim;
#X obj 316 451 outlet;
#X msg 433 268 select rhythm from rhythms where grp = \$1 order by
ord;
#X msg 316 388 list set rhythm;
#X obj 643 414 SQLquery \$0-db;
#X obj 689 388 t b;
#X obj 625 306 bng 15 250 50 0 empty empty empty 17 7 0 10 -262144
-1 -1;
#X obj 724 368 f;
#X floatatom 749 348 5 0 0 0 - - -;
#X obj 758 446 SQLquery-helper;
#X obj 870 446 bng 15 250 50 0 empty empty empty 17 7 0 10 -262144
-1 -1;
#X msg 801 466;
#X msg 758 486;
#X obj 643 487 t b l;
#X obj 607 529 list append;
#X obj 607 550 list trim;
#X obj 607 571 outlet;
#X msg 724 388 select velocity from velocities where grp = \$1 order
by ord;
#X msg 607 508 list set velocity;
#X text 210 117 <- select the group of pitches to load;
#X text 76 72 <- bang to load;
#X text 366 182 <- bang to load;
#X text 656 302 <- bang to load;
#X text 500 227 <- select the group of rhythms to load;
#X text 790 347 <- select the group of velocities to load;
#N canvas 405 80 562 491 unified 0;
#X obj 80 245 SQLquery \$0-db;
#X obj 50 77 SQLstatement-helper;
#X obj 126 219 t b;
#X obj 31 36 bng 15 250 50 0 empty empty empty 17 7 0 10 -262144 -1
-1;
#X obj 161 99 f;
#X floatatom 176 79 5 0 0 0 - - -;
#X obj 185 277 SQLquery-helper;
#X obj 287 277 bng 15 250 50 0 empty empty empty 17 7 0 10 -262144
-1 -1;
#X msg 228 297;
#X msg 185 317;
#X obj 80 318 t b l;
#X msg 44 369 list set pitch;
#X obj 44 390 list append;
#X obj 44 411 list trim;
#X obj 44 432 outlet;
#X obj 31 55 t b b b;
#X text 220 77 <- select the group of pitches to load;
#X text 67 32 <- bang to load;
#X obj 161 196 pack f s s;
#X obj 44 348 symbol;
#X obj 276 129 symbol pitch;
#X obj 276 149 symbol rhythm;
#X obj 276 169 symbol velocity;
#X obj 376 129 symbol pitches;
#X obj 376 149 symbol rhythms;
#X obj 376 169 symbol velocities;
#X obj 233 129 t b b;
#X obj 213 130 bng 15 250 50 0 empty empty pitch -32 7 0 10 -262144
-1 -1;
#X obj 233 149 t b b;
#X obj 213 150 bng 15 250 50 0 empty empty rhythm -38 7 0 10 -262144
-1 -1;
#X obj 233 169 t b b;
#X obj 213 170 bng 15 250 50 0 empty empty velocity -49 7 0 10 -262144
-1 -1;
#X msg 161 219 select \$2 from \$3 where grp = \$1 order by ord;
#X obj 80 296 make-list;
#X connect 0 0 6 0;
#X connect 0 0 33 0;
#X connect 0 2 6 1;
#X connect 0 2 33 2;
#X connect 1 0 0 0;
#X connect 1 1 4 0;
#X connect 2 0 0 0;
#X connect 3 0 15 0;
#X connect 4 0 18 0;
#X connect 5 0 4 1;
#X connect 6 0 9 0;
#X connect 6 1 8 0;
#X connect 6 2 7 0;
#X connect 10 0 19 0;
#X connect 10 1 12 1;
#X connect 11 0 12 0;
#X connect 12 0 13 0;
#X connect 13 0 14 0;
#X connect 15 0 0 0;
#X connect 15 1 1 0;
#X connect 15 2 33 1;
#X connect 18 0 32 0;
#X connect 19 0 11 0;
#X connect 20 0 18 1;
#X connect 20 0 19 1;
#X connect 21 0 18 1;
#X connect 21 0 19 1;
#X connect 22 0 18 1;
#X connect 22 0 19 1;
#X connect 23 0 18 2;
#X connect 24 0 18 2;
#X connect 25 0 18 2;
#X connect 26 0 20 0;
#X connect 26 1 23 0;
#X connect 27 0 26 0;
#X connect 28 0 21 0;
#X connect 28 1 24 0;
#X connect 29 0 28 0;
#X connect 30 0 22 0;
#X connect 30 1 25 0;
#X connect 31 0 30 0;
#X connect 32 0 0 1;
#X connect 33 0 10 0;
#X connect 33 1 2 0;
#X restore 722 120 pd unified;
#X obj 722 144 print;
#X obj 40 117 SQLstatement-send;
#X obj 40 95 t b b;
#X obj 334 205 t b b;
#X obj 625 325 t b b;
#X obj 187 20 inlet;
#X obj 186 41 t b f b f b f;
#X obj 334 227 SQLstatement-send;
#X obj 625 347 SQLstatement-send;
#X obj 58 235 make-list;
#X obj 352 345 make-list;
#X obj 643 465 make-list;
#X connect 0 0 5 0;
#X connect 0 0 61 0;
#X connect 0 2 5 1;
#X connect 0 2 61 2;
#X connect 1 0 0 0;
#X connect 2 0 54 0;
#X connect 3 0 9 0;
#X connect 4 0 3 1;
#X connect 5 0 8 0;
#X connect 5 1 7 0;
#X connect 5 2 6 0;
#X connect 9 0 0 1;
#X connect 10 0 11 0;
#X connect 10 1 12 1;
#X connect 11 0 12 0;
#X connect 12 0 13 0;
#X connect 13 0 14 0;
#X connect 15 0 20 0;
#X connect 15 0 62 0;
#X connect 15 2 20 1;
#X connect 15 2 62 2;
#X connect 16 0 15 0;
#X connect 17 0 55 0;
#X connect 18 0 28 0;
#X connect 19 0 18 1;
#X connect 20 0 23 0;
#X connect 20 1 22 0;
#X connect 20 2 21 0;
#X connect 24 0 29 0;
#X connect 24 1 25 1;
#X connect 25 0 26 0;
#X connect 26 0 27 0;
#X connect 28 0 15 1;
#X connect 29 0 25 0;
#X connect 30 0 35 0;
#X connect 30 0 63 0;
#X connect 30 2 35 1;
#X connect 30 2 63 2;
#X connect 31 0 30 0;
#X connect 32 0 56 0;
#X connect 33 0 43 0;
#X connect 34 0 33 1;
#X connect 35 0 38 0;
#X connect 35 1 37 0;
#X connect 35 2 36 0;
#X connect 39 0 44 0;
#X connect 39 1 40 1;
#X connect 40 0 41 0;
#X connect 41 0 42 0;
#X connect 43 0 30 1;
#X connect 44 0 40 0;
#X connect 51 0 52 0;
#X connect 53 0 0 0;
#X connect 53 1 3 0;
#X connect 54 0 53 0;
#X connect 54 1 61 1;
#X connect 55 0 59 0;
#X connect 55 1 62 1;
#X connect 56 0 60 0;
#X connect 56 1 63 1;
#X connect 57 0 58 0;
#X connect 58 0 2 0;
#X connect 58 1 4 0;
#X connect 58 2 17 0;
#X connect 58 3 19 0;
#X connect 58 4 32 0;
#X connect 58 5 34 0;
#X connect 59 0 15 0;
#X connect 59 1 18 0;
#X connect 60 0 30 0;
#X connect 60 1 33 0;
#X connect 61 0 10 0;
#X connect 61 1 1 0;
#X connect 62 0 24 0;
#X connect 62 1 16 0;
#X connect 63 0 39 0;
#X connect 63 1 31 0;
#X restore 482 317 pd load-data-set;
#N canvas 423 82 822 699 store-data-set 0;
#X obj 39 54 inlet bang;
#X obj 145 57 inlet pitch;
#X obj 259 57 inlet rhythm;
#X obj 374 57 inlet velocity;
#X obj 351 203 list;
#X obj 236 203 list;
#X obj 124 203 list;
#X obj 39 102 t b b b;
#N canvas 379 55 621 669 store-velocity 0;
#X obj 176 43 inlet;
#X obj 244 202 SQLquery \$0-db;
#X obj 151 304 pack f f f;
#X obj 182 224 f;
#X obj 209 224 + 1;
#X obj 110 139 list split 1;
#X obj 244 224 t b f;
#X obj 58 346 SQLquery \$0-db;
#X obj 244 159 SQLstatement-send;
#X obj 176 64 t l b b;
#X obj 127 161 list;
#X obj 151 283 f;
#X obj 37 262 SQLstatement-send;
#X obj 110 182 t b b f b;
#X msg 337 182 select max(grp) from velocities;
#X obj 244 269 v \$0-vel-grp-max;
#X msg 151 325 insert into velocities values (\$3 \, \$2 \, \$1);
#X obj 382 230 SQLquery-helper;
#X obj 501 233 bng 15 250 50 0 empty empty empty 17 7 0 10 -262144
-1 -1;
#X msg 432 252;
#X msg 383 271;
#X obj 51 377 SQLquery-helper;
#X obj 170 380 bng 15 250 50 0 empty empty empty 17 7 0 10 -262144
-1 -1;
#X msg 101 398;
#X msg 51 418;
#X obj 274 246 + 1;
#X msg 199 202 1;
#X obj 71 118 list split 1;
#X connect 0 0 9 0;
#X connect 1 0 6 0;
#X connect 1 0 17 0;
#X connect 1 2 17 1;
#X connect 2 0 16 0;
#X connect 3 0 2 1;
#X connect 3 0 4 0;
#X connect 4 0 3 1;
#X connect 5 0 13 0;
#X connect 5 1 10 1;
#X connect 6 0 15 0;
#X connect 6 1 25 0;
#X connect 7 0 21 0;
#X connect 7 2 21 1;
#X connect 8 0 1 0;
#X connect 8 1 14 0;
#X connect 9 0 27 0;
#X connect 9 1 26 0;
#X connect 9 2 8 0;
#X connect 10 0 5 0;
#X connect 11 0 2 0;
#X connect 12 0 7 0;
#X connect 12 1 11 0;
#X connect 13 0 10 0;
#X connect 13 1 12 0;
#X connect 13 2 11 1;
#X connect 13 3 3 0;
#X connect 14 0 1 1;
#X connect 15 0 2 2;
#X connect 16 0 7 1;
#X connect 17 0 20 0;
#X connect 17 1 19 0;
#X connect 17 2 18 0;
#X connect 21 0 24 0;
#X connect 21 1 23 0;
#X connect 21 2 22 0;
#X connect 25 0 15 0;
#X connect 26 0 3 1;
#X connect 27 1 5 0;
#X restore 351 249 pd store-velocity;
#N canvas 350 130 638 451 store-rhythm 0;
#X obj 166 23 inlet;
#X obj 234 182 SQLquery \$0-db;
#X obj 141 284 pack f f f;
#X obj 172 204 f;
#X obj 198 204 + 1;
#X obj 100 119 list split 1;
#X obj 234 204 t b f;
#X obj 48 326 SQLquery \$0-db;
#X obj 234 135 SQLstatement-send;
#X obj 166 44 t l b b;
#X obj 117 141 list;
#X obj 141 263 f;
#X obj 27 242 SQLstatement-send;
#X obj 100 162 t b b f b;
#X msg 327 161 select max(grp) from rhythms;
#X obj 234 249 v \$0-rhy-grp-max;
#X msg 141 305 insert into rhythms values (\$3 \, \$2 \, \$1);
#X obj 42 350 SQLquery-helper;
#X obj 157 351 bng 15 250 50 0 empty empty empty 17 7 0 10 -262144
-1 -1;
#X msg 92 370;
#X msg 43 390;
#X obj 362 207 SQLquery-helper;
#X obj 481 210 bng 15 250 50 0 empty empty empty 17 7 0 10 -262144
-1 -1;
#X msg 411 228;
#X msg 362 248;
#X obj 261 226 + 1;
#X msg 188 182 1;
#X obj 62 98 list split 1;
#X connect 0 0 9 0;
#X connect 1 0 6 0;
#X connect 1 0 21 0;
#X connect 1 2 21 1;
#X connect 2 0 16 0;
#X connect 3 0 2 1;
#X connect 3 0 4 0;
#X connect 4 0 3 1;
#X connect 5 0 13 0;
#X connect 5 1 10 1;
#X connect 6 0 15 0;
#X connect 6 1 25 0;
#X connect 7 0 17 0;
#X connect 7 2 17 1;
#X connect 8 0 1 0;
#X connect 8 1 14 0;
#X connect 9 0 27 0;
#X connect 9 1 26 0;
#X connect 9 2 8 0;
#X connect 10 0 5 0;
#X connect 11 0 2 0;
#X connect 12 0 7 0;
#X connect 12 1 11 0;
#X connect 13 0 10 0;
#X connect 13 1 12 0;
#X connect 13 2 11 1;
#X connect 13 3 3 0;
#X connect 14 0 1 1;
#X connect 15 0 2 2;
#X connect 16 0 7 1;
#X connect 17 0 20 0;
#X connect 17 1 19 0;
#X connect 17 2 18 0;
#X connect 21 0 24 0;
#X connect 21 1 23 0;
#X connect 21 2 22 0;
#X connect 25 0 15 0;
#X connect 26 0 3 1;
#X connect 27 1 5 0;
#X restore 236 249 pd store-rhythm;
#N canvas 91 212 630 540 store-pitch 0;
#X obj 178 43 inlet;
#X obj 244 162 SQLquery \$0-db;
#X obj 151 304 pack f f f;
#X obj 183 224 f;
#X obj 209 224 + 1;
#X obj 110 139 list split 1;
#X obj 244 184 t b f;
#X obj 58 346 SQLquery \$0-db;
#X obj 244 119 SQLstatement-send;
#X obj 178 64 t l b b;
#X obj 127 161 list;
#X msg 337 141 select max(grp) from pitches;
#X obj 244 249 v \$0-pit-grp-max;
#X msg 151 325 insert into pitches values (\$3 \, \$2 \, \$1);
#X obj 151 283 f;
#X obj 37 262 SQLstatement-send;
#X obj 110 182 t b b f b;
#X obj 382 190 SQLquery-helper;
#X obj 501 189 bng 15 250 50 0 empty empty empty 17 7 0 10 -262144
-1 -1;
#X msg 432 211;
#X msg 383 231;
#X obj 51 388 SQLquery-helper;
#X obj 170 389 bng 15 250 50 0 empty empty empty 17 7 0 10 -262144
-1 -1;
#X msg 101 409;
#X msg 52 429;
#X obj 271 207 + 1;
#X msg 199 199 1;
#X obj 72 113 list split 1;
#X connect 0 0 9 0;
#X connect 1 0 6 0;
#X connect 1 0 17 0;
#X connect 1 2 17 1;
#X connect 2 0 13 0;
#X connect 3 0 2 1;
#X connect 3 0 4 0;
#X connect 4 0 3 1;
#X connect 5 0 16 0;
#X connect 5 1 10 1;
#X connect 6 0 12 0;
#X connect 6 1 25 0;
#X connect 7 0 21 0;
#X connect 7 2 21 1;
#X connect 8 0 1 0;
#X connect 8 1 11 0;
#X connect 9 0 27 0;
#X connect 9 1 26 0;
#X connect 9 2 8 0;
#X connect 10 0 5 0;
#X connect 11 0 1 1;
#X connect 12 0 2 2;
#X connect 13 0 7 1;
#X connect 14 0 2 0;
#X connect 15 0 7 0;
#X connect 15 1 14 0;
#X connect 16 0 10 0;
#X connect 16 1 15 0;
#X connect 16 2 14 1;
#X connect 16 3 3 0;
#X connect 17 0 20 0;
#X connect 17 1 19 0;
#X connect 17 2 18 0;
#X connect 21 0 24 0;
#X connect 21 1 23 0;
#X connect 21 2 22 0;
#X connect 25 0 12 0;
#X connect 26 0 3 1;
#X connect 27 1 5 0;
#X restore 124 249 pd store-pitch;
#X connect 0 0 7 0;
#X connect 1 0 6 1;
#X connect 2 0 5 1;
#X connect 3 0 4 1;
#X connect 4 0 8 0;
#X connect 5 0 9 0;
#X connect 6 0 10 0;
#X connect 7 0 6 0;
#X connect 7 1 5 0;
#X connect 7 2 4 0;
#X restore 482 232 pd store-data-set;
#X obj 482 213 bng 15 250 50 0 empty empty empty 17 7 0 10 -262144
-1 -1;
#X msg 844 575 gate \$1;
#X floatatom 482 298 5 0 0 0 - - -;
#X obj 499 672 reich 500 1 1 1;
#X obj 776 671 reich 501 1 2 1;
#X text 705 60 Add the elements you want to use.;
#X obj 24 103 cnv 15 180 150 empty empty Open_or_Create_Database 5
8 0 12 -233017 -66577 0;
#X obj 38 185 SQLdb \$0-db;
#X obj 38 206 SQLdb-helper;
#X msg 38 228;
#X msg 38 163 open \$1;
#X msg 112 163 close;
#X obj 38 124 bng 15 250 50 0 empty empty empty 17 7 0 10 -262144 -1
-1;
#X obj 38 142 openpanel;
#X obj 112 124 bng 15 250 50 0 empty empty empty 17 7 0 10 -262144
-1 -1;
#X obj 112 142 savepanel;
#X obj 499 696 notetree2;
#X text 26 86 1 Either open the 'sample.db' \, or make your own.;
#X text 21 376 2 If you created a new database with the 'savepanel'
\, then initialize the required tables. You shouldn't get any errors
\, but if you do \, open the subpatch and look for the SQLquery-helper
object for a message.;
#X obj 18 441 cnv 15 150 80 empty empty Create_Tables 5 8 0 12 -233017
-66577 0;
#N canvas 0 22 634 386 make-tables 0;
#X obj 100 59 inlet;
#X obj 100 83 t b b b;
#X obj 143 114 SQLstatement-send;
#X obj 123 282 SQLquery \$0-db;
#X msg 215 263 create table \$1 (grp int \, ord int \, \$2 int);
#X msg 257 134 list pitches pitch;
#X obj 122 154 SQLstatement-send;
#X obj 101 194 SQLstatement-send;
#X msg 235 174 list velocities velocity;
#X msg 215 214 list rhythms rhythm;
#X obj 123 318 SQLquery-helper;
#X obj 236 318 bng 15 250 50 0 empty empty empty 17 7 0 10 -262144
-1 -1;
#X msg 172 338;
#X msg 123 358;
#X connect 0 0 1 0;
#X connect 1 0 7 0;
#X connect 1 1 6 0;
#X connect 1 2 2 0;
#X connect 2 0 3 0;
#X connect 2 1 5 0;
#X connect 3 0 10 0;
#X connect 3 2 10 1;
#X connect 4 0 3 1;
#X connect 5 0 4 0;
#X connect 6 0 3 0;
#X connect 6 1 8 0;
#X connect 7 0 3 0;
#X connect 7 1 9 0;
#X connect 8 0 4 0;
#X connect 9 0 4 0;
#X connect 10 0 13 0;
#X connect 10 1 12 0;
#X connect 10 2 11 0;
#X restore 38 491 pd make-tables;
#X obj 38 470 bng 15 250 50 0 empty empty empty 17 7 0 10 -262144 -1
-1;
#X obj 470 365 cnv 15 150 75 empty empty Count_Stored_Sets 5 8 0 12
-233017 -66577 0;
#X obj 481 383 bng 15 250 50 0 empty empty empty 17 7 0 10 -262144
-1 -1;
#N canvas 731 253 536 335 count-data-sets 0;
#X obj 101 41 inlet;
#X obj 103 244 outlet;
#X obj 102 87 SQLstatement-send;
#X obj 103 143 SQLquery \$0-db;
#X msg 197 118 select max(grp) from pitches;
#X obj 252 190 SQLquery-helper;
#X obj 371 189 bng 15 250 50 0 empty empty empty 17 7 0 10 -262144
-1 -1;
#X msg 301 211;
#X msg 253 231;
#X msg 162 220 -1;
#X obj 102 194 route float symbol;
#X obj 102 219 + 1;
#X connect 0 0 2 0;
#X connect 2 0 3 0;
#X connect 2 1 4 0;
#X connect 3 0 5 0;
#X connect 3 0 10 0;
#X connect 3 2 5 1;
#X connect 4 0 3 1;
#X connect 5 0 8 0;
#X connect 5 1 7 0;
#X connect 5 2 6 0;
#X connect 9 0 1 0;
#X connect 10 0 11 0;
#X connect 10 1 9 0;
#X connect 11 0 1 0;
#X restore 481 402 pd count-data-sets;
#X floatatom 481 422 5 0 0 0 - - -;
#X text 864 166 etc.;
#X floatatom 840 492 5 0 0 0 beat(ms) - -;
#X floatatom 674 538 5 0 0 0 gate(%) - -;
#X obj 674 555 / 100;
#X msg 674 575 gate \$1;
#X floatatom 670 492 5 0 0 0 beat(ms) - -;
#X msg 670 510 beat \$1;
#X msg 840 510 beat \$1;
#X text 847 86 (1) clear the list;
#X text 785 107 (2) add to the list;
#X text 396 88 4 Load for playing and storing;
#X text 437 175 5 Store in database;
#X text 405 260 3b Or load from the database.;
#X text 634 17 3a Make some sets of pitches \, rhythms \, and velocities.
;
#X text 351 344 6 Find out how many sets in database;
#X text 369 458 7 Control the performance;
#X text 406 638 0 Make sure you have a MIDI device connected \, output
is program 1 on both channels 1 and 2;
#X text 267 642 Look here first -->;
#X text 298 293 the database stores based \; on a 0 index;
#X text 33 547 Note: This should work in both Vanilla PD \, as well
as PD-Extended.;
#X text 33 577 Note2: This will produce a phased sequence of MIDI notes
\, ala Steve Reich;
#X text 34 615 Note3: Follow the numbered comments \, and do each step
in turn;
#X connect 5 0 30 0;
#X connect 5 0 31 0;
#X connect 6 0 30 0;
#X connect 6 0 31 0;
#X connect 7 0 30 0;
#X connect 7 0 31 0;
#X connect 8 0 30 0;
#X connect 8 0 31 0;
#X connect 9 0 26 1;
#X connect 9 0 30 0;
#X connect 9 0 31 0;
#X connect 10 0 26 2;
#X connect 10 0 30 0;
#X connect 10 0 31 0;
#X connect 11 0 26 3;
#X connect 11 0 30 0;
#X connect 11 0 31 0;
#X connect 12 0 13 0;
#X connect 13 0 9 0;
#X connect 14 0 9 0;
#X connect 15 0 16 0;
#X connect 16 0 10 0;
#X connect 17 0 18 0;
#X connect 18 0 11 0;
#X connect 19 0 10 0;
#X connect 20 0 11 0;
#X connect 21 0 22 0;
#X connect 22 0 28 0;
#X connect 23 0 24 0;
#X connect 24 0 11 0;
#X connect 24 1 10 0;
#X connect 24 2 9 0;
#X connect 25 0 9 0;
#X connect 25 1 10 0;
#X connect 25 2 11 0;
#X connect 27 0 26 0;
#X connect 28 0 31 0;
#X connect 29 0 25 0;
#X connect 30 0 43 0;
#X connect 31 0 43 0;
#X connect 34 0 35 0;
#X connect 35 0 36 0;
#X connect 37 0 34 0;
#X connect 38 0 34 0;
#X connect 39 0 40 0;
#X connect 40 0 37 0;
#X connect 41 0 42 0;
#X connect 42 0 37 0;
#X connect 48 0 47 0;
#X connect 50 0 51 0;
#X connect 51 0 52 0;
#X connect 54 0 60 0;
#X connect 55 0 56 0;
#X connect 56 0 57 0;
#X connect 57 0 30 0;
#X connect 58 0 59 0;
#X connect 59 0 30 0;
#X connect 60 0 31 0;
