#N canvas 56 226 362 259 10;
#X obj 27 28 cnv 15 300 200 empty empty sendnote 20 12 0 18 -233017
-66577 0;
#X text 42 50 inlet - note velocity duration channel;
#X obj 79 82 inlet;
#X obj 79 132 makenote;
#X obj 79 157 noteout;
#X obj 79 107 unpack 0 0 0 0;
#X connect 2 0 5 0;
#X connect 3 0 4 0;
#X connect 3 1 4 1;
#X connect 5 0 3 0;
#X connect 5 1 3 1;
#X connect 5 2 3 2;
#X connect 5 3 4 2;
