#N canvas 200 145 311 236 10;
#X obj 91 66 inlet;
#X obj 91 86 t b a;
#X obj 121 106 route list symbol;
#X obj 91 126 symbol set;
#X obj 91 146 list;
#X obj 91 166 list trim;
#X obj 91 186 outlet;
#X obj 51 30 loadbang;
#X msg 51 50 list;
#X connect 0 0 1 0;
#X connect 1 0 3 0;
#X connect 1 1 2 0;
#X connect 2 0 4 1;
#X connect 2 1 4 1;
#X connect 3 0 4 0;
#X connect 4 0 5 0;
#X connect 5 0 6 0;
#X connect 7 0 8 0;
#X connect 8 0 1 0;
