#N canvas 0 22 454 304 10;
#X obj 210 57 inlet;
#X obj 274 127 t b a;
#X obj 301 147 route list symbol;
#X obj 274 167 symbol set;
#X obj 274 187 list;
#X obj 274 207 list trim;
#X obj 274 266 outlet;
#X obj 210 80 route bang;
#X obj 380 266 outlet;
#X obj 353 187 t b b;
#X msg 353 207 set;
#X obj 50 57 inlet;
#X obj 50 109 t b a;
#X obj 77 129 route list symbol;
#X obj 50 149 symbol set;
#X obj 50 169 list;
#X obj 50 189 list trim;
#X obj 50 266 outlet;
#X obj 116 26 loadbang;
#X msg 116 48 list;
#X obj 50 215 t a b;
#X msg 77 235 set;
#X connect 0 0 7 0;
#X connect 1 0 3 0;
#X connect 1 1 2 0;
#X connect 2 0 4 1;
#X connect 2 1 4 1;
#X connect 3 0 4 0;
#X connect 4 0 5 0;
#X connect 5 0 6 0;
#X connect 7 0 9 0;
#X connect 7 1 1 0;
#X connect 9 0 10 0;
#X connect 9 1 8 0;
#X connect 10 0 6 0;
#X connect 10 0 17 0;
#X connect 11 0 12 0;
#X connect 12 0 14 0;
#X connect 12 1 13 0;
#X connect 13 0 15 1;
#X connect 13 1 15 1;
#X connect 14 0 15 0;
#X connect 15 0 16 0;
#X connect 16 0 20 0;
#X connect 18 0 19 0;
#X connect 19 0 12 0;
#X connect 20 0 17 0;
#X connect 20 1 21 0;
#X connect 21 0 6 0;
