#N canvas 120 167 450 300 10;
#X obj 109 48 inlet;
#X obj 109 168 outlet;
#X obj 162 169 outlet;
#X msg 160 103 clear;
#X msg 127 141 addsemi;
#X obj 109 78 t b b b b;
#X connect 0 0 5 0;
#X connect 3 0 1 0;
#X connect 4 0 1 0;
#X connect 5 0 1 0;
#X connect 5 1 4 0;
#X connect 5 2 2 0;
#X connect 5 3 3 0;
