#N canvas 0 22 450 300 10;
#X obj 109 48 inlet;
#X obj 110 80 t b b b;
#X obj 109 153 outlet;
#X obj 162 154 outlet;
#X msg 109 107 clear;
#X msg 119 130 addsemi;
#X connect 0 0 1 0;
#X connect 1 0 5 0;
#X connect 1 1 3 0;
#X connect 1 2 4 0;
#X connect 4 0 2 0;
#X connect 5 0 2 0;
